<svg width="628" height="59" viewBox="0 0 628 59" fill="none" xmlns="http://www.w3.org/2000/svg">
<path d="M0.520989 27.258H56.702V14.082L50.358 3.041H30.35V6.457L33.339 12.313V13.106H23.884V12.313L26.934 6.457V3.041H6.86499L0.520989 14.082V27.258ZM1.43599 29.515V57.697H55.604V29.515H1.43599ZM19.797 41.715H36.816V45.07H19.797V41.715ZM102.147 17.01V15.302H119.837V3.529H102.147V1.089H81.895V3.529H64.571V15.302H81.895V17.01H64.022V57.758H78.967V29.21H105.258V49.157L103.672 50.865V45.253H98.548V43.667H103.611V35.859H102.147L103.794 31.589V30.43H93.729L92.204 35.859H91.899L90.374 30.43H80.309V31.589L81.956 35.859H80.492V43.667H85.616V45.253H80.431V52.878H85.616V56.843H98.548V52.878H101.842L100.805 54.037V57.758H120.02V17.01H102.147ZM176.323 27.624L183.277 20.853V4.871H173.395L166.746 12.557V1.211H147.958V42.874L142.834 51.048V58.185H166.746V44.948L174.615 54.586H183.826V36.042L176.323 27.624ZM145.884 6.335H127.889V26.77H132.83V30.064L127.523 38.177V54.586H137.893L145.884 42.203V6.335ZM239.336 17.376H242.569L246.595 14.387V2.553H227.197V0.844999H214.387L208.043 5.298V17.376H211.703L216.461 14.204V15.973L208.104 21.341V26.099H223.171L226.465 22.866H227.624L230.979 26.099H246.961V20.792L239.336 17.376ZM206.64 1.821H191.024V13.289H206.64V1.821ZM218.657 12.74L220.548 11.459H233.785V12.74H218.657ZM206.64 14.692H196.209L191.024 18.352V26.099H206.64V14.692ZM245.802 51.353V27.502H192.122V51.353H195.416L191.024 54.708V57.941H212.557L215.912 54.098H221.89L225.245 57.941H246.778V54.708L242.386 51.353H245.802ZM229.027 35.005V36.408H208.226V35.005H229.027ZM229.027 41.776H208.226V40.434H229.027V41.776ZM208.226 45.619H229.027V47.022H208.226V45.619ZM269.836 1.882V57.941H279.352L281.853 53.671V13.655H286.306L283.134 17.437V40.007H291.003V58.002H302.471V40.007H309.73V15.241H297.225V13.655H310.706V1.882H269.836ZM254.22 17.681H268.311V2.065H254.22V17.681ZM254.22 35.249H268.311V19.267H254.22V35.249ZM299.299 24.086V25.672H293.992V24.086H299.299ZM299.299 31.894H293.992V30.308H299.299V31.894ZM254.098 42.874V58.002H268.311V36.835H257.392L254.098 42.874ZM282.951 45.558V57.087H289.783V41.349H285.086L282.951 45.558ZM303.752 41.349V57.087H310.645V45.558L308.571 41.349H303.752ZM370.913 21.951L373.658 19.572V2.858H364.02V0.905998H351.881L347.916 4.261V12.618H361.58V14.082L359.628 15.424L357.554 13.96H347.916V20.609L350.478 22.378L347.916 24.33V31.467H357.615L360.604 28.905L364.386 31.467H373.963V24.33L370.913 21.951ZM326.2 28.905V31.467H337.973V28.905L341.328 31.406H346.635V24.574L341.938 22.073H346.574V12.618H338.339V11.276H346.574V2.37H338.339V0.966997H325.895V2.37H317.843V11.276H325.895V12.618H317.721V22.073H322.296L317.538 24.574V31.406H322.845L326.2 28.905ZM325.468 16.522H327.664V18.108H325.468V16.522ZM338.827 18.108H336.631V16.522H338.827V18.108ZM354.809 47.083H372.804V41.532H354.809V40.129H373.475V32.748H318.026V40.129H336.326V48.486H334.862V41.654H319.734V48.486H317.66V57.758H373.902V48.486H354.809V47.083ZM417.822 0.661998H399.766L380.49 9.629V26.099H384.089V29.393H434.414V26.099H438.074V9.629L417.822 0.661998ZM410.746 15.241L416.785 17.559H401.84L407.696 15.241H410.746ZM382.137 58.002H436.305V31.528H382.137V58.002ZM400.498 43.179H417.517V46.046H400.498V43.179ZM498.647 45.314L500.599 43.179V24.33H481.933V13.106H487.24V14.448H483.336V23.049H496.817L500.355 18.169V2.309H468.757V57.88H476.016L480.652 53V33.785H490.839V37.689L488.643 35.127H481.811V43.179L483.885 45.497L481.811 47.754V57.88H488.155L491.266 54.708L494.133 57.758H500.66V47.754L498.647 45.314ZM444.723 58.063H454.361V41.959H457.106V46.961L455.764 48.852V58.063H467.232V2.431H444.723V58.063ZM456.679 16.034V19.755H454.544V16.034H456.679ZM454.544 32.443V29.271H456.679V32.443H454.544ZM554.096 32.138H564.161V24.513L559.952 21.768L563.612 19.084V2.858H548.85V0.966997H537.016L532.807 5.237V13.228H550.558V14.204L547.691 16.217L545.373 14.692H532.807V19.084L537.138 21.89L533.112 24.208V20.853H528.903L531.16 16.522V2.004H507.797V13.045H520.18V13.777L518.716 16.766L517.557 14.692H507.919V17.62L509.627 20.853H507.492V31.467H511.396L507.248 34.456V48.242H509.383L513.165 44.887V47.205L508.956 51.109V57.758H525.243V31.467H526.463V46.839H530.55L531.892 44.094H533.722L529.33 53.61V57.758H543.482L546.715 44.094H549.216V48.547L546.593 50.804V57.758H563.917V33.541H550.009V31.101H544.885L548.606 28.6L554.096 32.138ZM533.112 33.541V32.138H536.345V33.541H533.112ZM590.025 1.882V57.941H601.249V42.447H602.652V54.586H610.887V57.941H627.479V1.882H590.025ZM588.683 31.65H585.206V31.284L588.683 26.709V16.339H584.413V15.912L588.683 9.873V2.004H577.52L571.603 10.544V24.391H574.653V24.696L571.42 29.576V43.24H588.683V31.65ZM615.401 14.143V22.927H613.144L614.181 21.402V15.546H608.935V22.927H607.715V15.546H602.469V21.402L603.506 22.927H601.249V14.143H615.401ZM601.249 31.467H603.811V33.358H601.249V31.467ZM615.401 31.467V33.358H612.229V31.467H615.401ZM614.059 50.987V44.643H610.704V42.447H615.401V49.95L614.059 50.987ZM571.115 47.266V57.758H577.276V44.704H572.701L571.115 47.266ZM578.496 57.758H583.376V44.704H578.496V57.758ZM584.596 57.758H588.744V44.704H584.596V57.758Z" fill="white"/>
</svg>
