<svg width="323" height="92" viewBox="0 0 323 92" fill="none" xmlns="http://www.w3.org/2000/svg">
<path d="M0.445006 20.01H41.89V10.29L37.21 2.145H22.45V4.665L24.655 8.985V9.57H17.68V8.985L19.93 4.665V2.145H5.12501L0.445006 10.29V20.01ZM1.12001 21.675V42.465H41.08V21.675H1.12001ZM14.665 30.675H27.22V33.15H14.665V30.675ZM75.415 12.45V11.19H88.465V2.505H75.415V0.705H60.475V2.505H47.695V11.19H60.475V12.45H47.29V42.51H58.315V21.45H77.71V36.165L76.54 37.425V33.285H72.76V32.115H76.495V26.355H75.415L76.63 23.205V22.35H69.205L68.08 26.355H67.855L66.73 22.35H59.305V23.205L60.52 26.355H59.44V32.115H63.22V33.285H59.395V38.91H63.22V41.835H72.76V38.91H75.19L74.425 39.765V42.51H88.6V12.45H75.415ZM135.58 3H128.65V0.434998H116.275V3H110.02V14.25H135.58V3ZM109.435 28.155V16.86H107.5V15.15H108.85V4.44H107.5V1.11H96.295V4.44H93.955V15.15H96.295V22.485L94.135 23.655V35.175H96.25L96.295 35.13V36.57L94.09 38.73V42.6H107.5V29.19L109.435 28.155ZM133.735 29.865V15.645H111.37V29.865H108.895V42.555H118.3L121.63 38.595V25.5H123.025V38.64L126.265 42.555H135.85V29.865H133.735ZM181.39 1.47H141.7V20.685H181.39V1.47ZM169.375 8.175V9.48H153.715V8.175H169.375ZM153.715 14.52V13.215H169.375V14.52H153.715ZM182.515 30.855H169.645V29.505H181.525V21.9H141.655V29.505H153.535V30.855H140.62V39H153.535V42.735H169.645V39H182.515V30.855ZM223.735 20.28L228.865 15.285V3.495H221.575L216.67 9.165V0.794998H202.81V31.53L199.03 37.56V42.825H216.67V33.06L222.475 40.17H229.27V26.49L223.735 20.28ZM201.28 4.575H188.005V19.65H191.65V22.08L187.735 28.065V40.17H195.385L201.28 31.035V4.575ZM270.22 12.72H272.605L275.575 10.515V1.785H261.265V0.524999H251.815L247.135 3.81V12.72H249.835L253.345 10.38V11.685L247.18 15.645V19.155H258.295L260.725 16.77H261.58L264.055 19.155H275.845V15.24L270.22 12.72ZM246.1 1.245H234.58V9.705H246.1V1.245ZM254.965 9.3L256.36 8.355H266.125V9.3H254.965ZM246.1 10.74H238.405L234.58 13.44V19.155H246.1V10.74ZM274.99 37.785V20.19H235.39V37.785H237.82L234.58 40.26V42.645H250.465L252.94 39.81H257.35L259.825 42.645H275.71V40.26L272.47 37.785H274.99ZM262.615 25.725V26.76H247.27V25.725H262.615ZM262.615 30.72H247.27V29.73H262.615V30.72ZM247.27 33.555H262.615V34.59H247.27V33.555ZM292.72 1.29V42.645H299.74L301.585 39.495V9.975H304.87L302.53 12.765V29.415H308.335V42.69H316.795V29.415H322.15V11.145H312.925V9.975H322.87V1.29H292.72ZM281.2 12.945H291.595V1.425H281.2V12.945ZM281.2 25.905H291.595V14.115H281.2V25.905ZM314.455 17.67V18.84H310.54V17.67H314.455ZM314.455 23.43H310.54V22.26H314.455V23.43ZM281.11 31.53V42.69H291.595V27.075H283.54L281.11 31.53ZM302.395 33.51V42.015H307.435V30.405H303.97L302.395 33.51ZM317.74 30.405V42.015H322.825V33.51L321.295 30.405H317.74ZM86.485 65.095L88.51 63.34V51.01H81.4V49.57H72.445L69.52 52.045V58.21H79.6V59.29L78.16 60.28L76.63 59.2H69.52V64.105L71.41 65.41L69.52 66.85V72.115H76.675L78.88 70.225L81.67 72.115H88.735V66.85L86.485 65.095ZM53.5 70.225V72.115H62.185V70.225L64.66 72.07H68.575V67.03L65.11 65.185H68.53V58.21H62.455V57.22H68.53V50.65H62.455V49.615H53.275V50.65H47.335V57.22H53.275V58.21H47.245V65.185H50.62L47.11 67.03V72.07H51.025L53.5 70.225ZM52.96 61.09H54.58V62.26H52.96V61.09ZM62.815 62.26H61.195V61.09H62.815V62.26ZM74.605 83.635H87.88V79.54H74.605V78.505H88.375V73.06H47.47V78.505H60.97V84.67H59.89V79.63H48.73V84.67H47.2V91.51H88.69V84.67H74.605V83.635ZM121.09 49.39H107.77L93.55 56.005V68.155H96.205V70.585H133.33V68.155H136.03V56.005L121.09 49.39ZM115.87 60.145L120.325 61.855H109.3L113.62 60.145H115.87ZM94.765 91.69H134.725V72.16H94.765V91.69ZM108.31 80.755H120.865V82.87H108.31V80.755ZM180.715 82.33L182.155 80.755V66.85H168.385V58.57H172.3V59.56H169.42V65.905H179.365L181.975 62.305V50.605H158.665V91.6H164.02L167.44 88V73.825H174.955V76.705L173.335 74.815H168.295V80.755L169.825 82.465L168.295 84.13V91.6H172.975L175.27 89.26L177.385 91.51H182.2V84.13L180.715 82.33ZM140.935 91.735H148.045V79.855H150.07V83.545L149.08 84.94V91.735H157.54V50.695H140.935V91.735ZM149.755 60.73V63.475H148.18V60.73H149.755ZM148.18 72.835V70.495H149.755V72.835H148.18ZM221.62 72.61H229.045V66.985L225.94 64.96L228.64 62.98V51.01H217.75V49.615H209.02L205.915 52.765V58.66H219.01V59.38L216.895 60.865L215.185 59.74H205.915V62.98L209.11 65.05L206.14 66.76V64.285H203.035L204.7 61.09V50.38H187.465V58.525H196.6V59.065L195.52 61.27L194.665 59.74H187.555V61.9L188.815 64.285H187.24V72.115H190.12L187.06 74.32V84.49H188.635L191.425 82.015V83.725L188.32 86.605V91.51H200.335V72.115H201.235V83.455H204.25L205.24 81.43H206.59L203.35 88.45V91.51H213.79L216.175 81.43H218.02V84.715L216.085 86.38V91.51H228.865V73.645H218.605V71.845H214.825L217.57 70L221.62 72.61ZM206.14 73.645V72.61H208.525V73.645H206.14ZM248.125 50.29V91.645H256.405V80.215H257.44V89.17H263.515V91.645H275.755V50.29H248.125ZM247.135 72.25H244.57V71.98L247.135 68.605V60.955H243.985V60.64L247.135 56.185V50.38H238.9L234.535 56.68V66.895H236.785V67.12L234.4 70.72V80.8H247.135V72.25ZM266.845 59.335V65.815H265.18L265.945 64.69V60.37H262.075V65.815H261.175V60.37H257.305V64.69L258.07 65.815H256.405V59.335H266.845ZM256.405 72.115H258.295V73.51H256.405V72.115ZM266.845 72.115V73.51H264.505V72.115H266.845ZM265.855 86.515V81.835H263.38V80.215H266.845V85.75L265.855 86.515ZM234.175 83.77V91.51H238.72V81.88H235.345L234.175 83.77ZM239.62 91.51H243.22V81.88H239.62V91.51ZM244.12 91.51H247.18V81.88H244.12V91.51Z" fill="white"/>
</svg>
