<svg width="324" height="92" viewBox="0 0 324 92" fill="none" xmlns="http://www.w3.org/2000/svg">
<path d="M0.445006 20.01H41.89V10.29L37.21 2.145H22.45V4.665L24.655 8.985V9.57H17.68V8.985L19.93 4.665V2.145H5.12501L0.445006 10.29V20.01ZM1.12001 21.675V42.465H41.08V21.675H1.12001ZM14.665 30.675H27.22V33.15H14.665V30.675ZM75.415 12.45V11.19H88.465V2.505H75.415V0.705H60.475V2.505H47.695V11.19H60.475V12.45H47.29V42.51H58.315V21.45H77.71V36.165L76.54 37.425V33.285H72.76V32.115H76.495V26.355H75.415L76.63 23.205V22.35H69.205L68.08 26.355H67.855L66.73 22.35H59.305V23.205L60.52 26.355H59.44V32.115H63.22V33.285H59.395V38.91H63.22V41.835H72.76V38.91H75.19L74.425 39.765V42.51H88.6V12.45H75.415ZM130.135 20.28L135.265 15.285V3.495H127.975L123.07 9.165V0.794998H109.21V31.53L105.43 37.56V42.825H123.07V33.06L128.875 40.17H135.67V26.49L130.135 20.28ZM107.68 4.575H94.405V19.65H98.05V22.08L94.135 28.065V40.17H101.785L107.68 31.035V4.575ZM176.62 12.72H179.005L181.975 10.515V1.785H167.665V0.524999H158.215L153.535 3.81V12.72H156.235L159.745 10.38V11.685L153.58 15.645V19.155H164.695L167.125 16.77H167.98L170.455 19.155H182.245V15.24L176.62 12.72ZM152.5 1.245H140.98V9.705H152.5V1.245ZM161.365 9.3L162.76 8.355H172.525V9.3H161.365ZM152.5 10.74H144.805L140.98 13.44V19.155H152.5V10.74ZM181.39 37.785V20.19H141.79V37.785H144.22L140.98 40.26V42.645H156.865L159.34 39.81H163.75L166.225 42.645H182.11V40.26L178.87 37.785H181.39ZM169.015 25.725V26.76H153.67V25.725H169.015ZM169.015 30.72H153.67V29.73H169.015V30.72ZM153.67 33.555H169.015V34.59H153.67V33.555ZM199.12 1.29V42.645H206.14L207.985 39.495V9.975H211.27L208.93 12.765V29.415H214.735V42.69H223.195V29.415H228.55V11.145H219.325V9.975H229.27V1.29H199.12ZM187.6 12.945H197.995V1.425H187.6V12.945ZM187.6 25.905H197.995V14.115H187.6V25.905ZM220.855 17.67V18.84H216.94V17.67H220.855ZM220.855 23.43H216.94V22.26H220.855V23.43ZM187.51 31.53V42.69H197.995V27.075H189.94L187.51 31.53ZM208.795 33.51V42.015H213.835V30.405H210.37L208.795 33.51ZM224.14 30.405V42.015H229.225V33.51L227.695 30.405H224.14ZM273.685 16.095L275.71 14.34V2.01H268.6V0.569999H259.645L256.72 3.045V9.21H266.8V10.29L265.36 11.28L263.83 10.2H256.72V15.105L258.61 16.41L256.72 17.85V23.115H263.875L266.08 21.225L268.87 23.115H275.935V17.85L273.685 16.095ZM240.7 21.225V23.115H249.385V21.225L251.86 23.07H255.775V18.03L252.31 16.185H255.73V9.21H249.655V8.22H255.73V1.65H249.655V0.614998H240.475V1.65H234.535V8.22H240.475V9.21H234.445V16.185H237.82L234.31 18.03V23.07H238.225L240.7 21.225ZM240.16 12.09H241.78V13.26H240.16V12.09ZM250.015 13.26H248.395V12.09H250.015V13.26ZM261.805 34.635H275.08V30.54H261.805V29.505H275.575V24.06H234.67V29.505H248.17V35.67H247.09V30.63H235.93V35.67H234.4V42.51H275.89V35.67H261.805V34.635ZM308.29 0.389998H294.97L280.75 7.005V19.155H283.405V21.585H320.53V19.155H323.23V7.005L308.29 0.389998ZM303.07 11.145L307.525 12.855H296.5L300.82 11.145H303.07ZM281.965 42.69H321.925V23.16H281.965V42.69ZM295.51 31.755H308.065V33.87H295.51V31.755ZM133.915 82.33L135.355 80.755V66.85H121.585V58.57H125.5V59.56H122.62V65.905H132.565L135.175 62.305V50.605H111.865V91.6H117.22L120.64 88V73.825H128.155V76.705L126.535 74.815H121.495V80.755L123.025 82.465L121.495 84.13V91.6H126.175L128.47 89.26L130.585 91.51H135.4V84.13L133.915 82.33ZM94.135 91.735H101.245V79.855H103.27V83.545L102.28 84.94V91.735H110.74V50.695H94.135V91.735ZM102.955 60.73V63.475H101.38V60.73H102.955ZM101.38 72.835V70.495H102.955V72.835H101.38ZM174.82 72.61H182.245V66.985L179.14 64.96L181.84 62.98V51.01H170.95V49.615H162.22L159.115 52.765V58.66H172.21V59.38L170.095 60.865L168.385 59.74H159.115V62.98L162.31 65.05L159.34 66.76V64.285H156.235L157.9 61.09V50.38H140.665V58.525H149.8V59.065L148.72 61.27L147.865 59.74H140.755V61.9L142.015 64.285H140.44V72.115H143.32L140.26 74.32V84.49H141.835L144.625 82.015V83.725L141.52 86.605V91.51H153.535V72.115H154.435V83.455H157.45L158.44 81.43H159.79L156.55 88.45V91.51H166.99L169.375 81.43H171.22V84.715L169.285 86.38V91.51H182.065V73.645H171.805V71.845H168.025L170.77 70L174.82 72.61ZM159.34 73.645V72.61H161.725V73.645H159.34ZM201.325 50.29V91.645H209.605V80.215H210.64V89.17H216.715V91.645H228.955V50.29H201.325ZM200.335 72.25H197.77V71.98L200.335 68.605V60.955H197.185V60.64L200.335 56.185V50.38H192.1L187.735 56.68V66.895H189.985V67.12L187.6 70.72V80.8H200.335V72.25ZM220.045 59.335V65.815H218.38L219.145 64.69V60.37H215.275V65.815H214.375V60.37H210.505V64.69L211.27 65.815H209.605V59.335H220.045ZM209.605 72.115H211.495V73.51H209.605V72.115ZM220.045 72.115V73.51H217.705V72.115H220.045ZM219.055 86.515V81.835H216.58V80.215H220.045V85.75L219.055 86.515ZM187.375 83.77V91.51H191.92V81.88H188.545L187.375 83.77ZM192.82 91.51H196.42V81.88H192.82V91.51ZM197.32 91.51H200.38V81.88H197.32V91.51Z" fill="white"/>
</svg>
