<svg width="755" height="59" viewBox="0 0 755 59" fill="none" xmlns="http://www.w3.org/2000/svg">
<path d="M0.580987 27.258H56.762V14.082L50.418 3.041H30.41V6.457L33.399 12.313V13.106H23.944V12.313L26.994 6.457V3.041H6.92499L0.580987 14.082V27.258ZM1.49599 29.515V57.697H55.664V29.515H1.49599ZM19.857 41.715H36.876V45.07H19.857V41.715ZM102.207 17.01V15.302H119.897V3.529H102.207V1.089H81.955V3.529H64.631V15.302H81.955V17.01H64.082V57.758H79.027V29.21H105.318V49.157L103.732 50.865V45.253H98.608V43.667H103.671V35.859H102.207L103.854 31.589V30.43H93.789L92.264 35.859H91.959L90.434 30.43H80.369V31.589L82.016 35.859H80.552V43.667H85.676V45.253H80.491V52.878H85.676V56.843H98.608V52.878H101.902L100.865 54.037V57.758H120.08V17.01H102.207ZM183.764 4.2H174.37V0.722997H157.595V4.2H149.116V19.45H183.764V4.2ZM148.323 38.299V22.988H145.7V20.67H147.53V6.152H145.7V1.638H130.511V6.152H127.339V20.67H130.511V30.613L127.583 32.199V47.815H130.45L130.511 47.754V49.706L127.522 52.634V57.88H145.7V39.702L148.323 38.299ZM181.263 40.617V21.341H150.946V40.617H147.591V57.819H160.34L164.854 52.451V34.7H166.745V52.512L171.137 57.819H184.13V40.617H181.263ZM245.862 2.126H192.06V28.173H245.862V2.126ZM229.575 11.215V12.984H208.347V11.215H229.575ZM208.347 19.816V18.047H229.575V19.816H208.347ZM247.387 41.959H229.941V40.129H246.045V29.82H191.999V40.129H208.103V41.959H190.596V53H208.103V58.063H229.941V53H247.387V41.959ZM303.263 27.624L310.217 20.853V4.871H300.335L293.686 12.557V1.211H274.898V42.874L269.774 51.048V58.185H293.686V44.948L301.555 54.586H310.766V36.042L303.263 27.624ZM272.824 6.335H254.829V26.77H259.77V30.064L254.463 38.177V54.586H264.833L272.824 42.203V6.335ZM366.276 17.376H369.509L373.535 14.387V2.553H354.137V0.844999H341.327L334.983 5.298V17.376H338.643L343.401 14.204V15.973L335.044 21.341V26.099H350.111L353.405 22.866H354.564L357.919 26.099H373.901V20.792L366.276 17.376ZM333.58 1.821H317.964V13.289H333.58V1.821ZM345.597 12.74L347.488 11.459H360.725V12.74H345.597ZM333.58 14.692H323.149L317.964 18.352V26.099H333.58V14.692ZM372.742 51.353V27.502H319.062V51.353H322.356L317.964 54.708V57.941H339.497L342.852 54.098H348.83L352.185 57.941H373.718V54.708L369.326 51.353H372.742ZM355.967 35.005V36.408H335.166V35.005H355.967ZM355.967 41.776H335.166V40.434H355.967V41.776ZM335.166 45.619H355.967V47.022H335.166V45.619ZM396.776 1.882V57.941H406.292L408.793 53.671V13.655H413.246L410.074 17.437V40.007H417.943V58.002H429.411V40.007H436.67V15.241H424.165V13.655H437.646V1.882H396.776ZM381.16 17.681H395.251V2.065H381.16V17.681ZM381.16 35.249H395.251V19.267H381.16V35.249ZM426.239 24.086V25.672H420.932V24.086H426.239ZM426.239 31.894H420.932V30.308H426.239V31.894ZM381.038 42.874V58.002H395.251V36.835H384.332L381.038 42.874ZM409.891 45.558V57.087H416.723V41.349H412.026L409.891 45.558ZM430.692 41.349V57.087H437.585V45.558L435.511 41.349H430.692ZM497.853 21.951L500.598 19.572V2.858H490.96V0.905998H478.821L474.856 4.261V12.618H488.52V14.082L486.568 15.424L484.494 13.96H474.856V20.609L477.418 22.378L474.856 24.33V31.467H484.555L487.544 28.905L491.326 31.467H500.903V24.33L497.853 21.951ZM453.14 28.905V31.467H464.913V28.905L468.268 31.406H473.575V24.574L468.878 22.073H473.514V12.618H465.279V11.276H473.514V2.37H465.279V0.966997H452.835V2.37H444.783V11.276H452.835V12.618H444.661V22.073H449.236L444.478 24.574V31.406H449.785L453.14 28.905ZM452.408 16.522H454.604V18.108H452.408V16.522ZM465.767 18.108H463.571V16.522H465.767V18.108ZM481.749 47.083H499.744V41.532H481.749V40.129H500.415V32.748H444.966V40.129H463.266V48.486H461.802V41.654H446.674V48.486H444.6V57.758H500.842V48.486H481.749V47.083ZM544.762 0.661998H526.706L507.43 9.629V26.099H511.029V29.393H561.354V26.099H565.014V9.629L544.762 0.661998ZM537.686 15.241L543.725 17.559H528.78L534.636 15.241H537.686ZM509.077 58.002H563.245V31.528H509.077V58.002ZM527.438 43.179H544.457V46.046H527.438V43.179ZM625.587 45.314L627.539 43.179V24.33H608.873V13.106H614.18V14.448H610.276V23.049H623.757L627.295 18.169V2.309H595.697V57.88H602.956L607.592 53V33.785H617.779V37.689L615.583 35.127H608.751V43.179L610.825 45.497L608.751 47.754V57.88H615.095L618.206 54.708L621.073 57.758H627.6V47.754L625.587 45.314ZM571.663 58.063H581.301V41.959H584.046V46.961L582.704 48.852V58.063H594.172V2.431H571.663V58.063ZM583.619 16.034V19.755H581.484V16.034H583.619ZM581.484 32.443V29.271H583.619V32.443H581.484ZM681.036 32.138H691.101V24.513L686.892 21.768L690.552 19.084V2.858H675.79V0.966997H663.956L659.747 5.237V13.228H677.498V14.204L674.631 16.217L672.313 14.692H659.747V19.084L664.078 21.89L660.052 24.208V20.853H655.843L658.1 16.522V2.004H634.737V13.045H647.12V13.777L645.656 16.766L644.497 14.692H634.859V17.62L636.567 20.853H634.432V31.467H638.336L634.188 34.456V48.242H636.323L640.105 44.887V47.205L635.896 51.109V57.758H652.183V31.467H653.403V46.839H657.49L658.832 44.094H660.662L656.27 53.61V57.758H670.422L673.655 44.094H676.156V48.547L673.533 50.804V57.758H690.857V33.541H676.949V31.101H671.825L675.546 28.6L681.036 32.138ZM660.052 33.541V32.138H663.285V33.541H660.052ZM716.965 1.882V57.941H728.189V42.447H729.592V54.586H737.827V57.941H754.419V1.882H716.965ZM715.623 31.65H712.146V31.284L715.623 26.709V16.339H711.353V15.912L715.623 9.873V2.004H704.46L698.543 10.544V24.391H701.593V24.696L698.36 29.576V43.24H715.623V31.65ZM742.341 14.143V22.927H740.084L741.121 21.402V15.546H735.875V22.927H734.655V15.546H729.409V21.402L730.446 22.927H728.189V14.143H742.341ZM728.189 31.467H730.751V33.358H728.189V31.467ZM742.341 31.467V33.358H739.169V31.467H742.341ZM740.999 50.987V44.643H737.644V42.447H742.341V49.95L740.999 50.987ZM698.055 47.266V57.758H704.216V44.704H699.641L698.055 47.266ZM705.436 57.758H710.316V44.704H705.436V57.758ZM711.536 57.758H715.684V44.704H711.536V57.758Z" fill="white"/>
</svg>
