<svg width="30" viewBox="0 0 65 64" fill="none" xmlns="http://www.w3.org/2000/svg">
<path fill-rule="evenodd" clip-rule="evenodd" d="M23.166 26.5022C23.166 21.7069 26.7411 18.0205 30.9236 18.0205H53.2423C57.4248 18.0205 61 21.7069 61 26.5022C61 31.2974 57.4248 34.9838 53.2423 34.9838H30.9236C26.7411 34.9838 23.166 31.2974 23.166 26.5022ZM22.1791 19.814H6.47849L1 31.8456V44.5921H6.15202C6.81281 47.114 9.10017 48.9797 11.8292 48.9797C14.5583 48.9797 16.8456 47.114 17.5064 44.5921H22.6583V44.5921H40.7415C41.4004 47.1093 43.6789 48.9797 46.4189 48.9797C48.1671 48.9797 49.7275 48.2182 50.7991 47.0132C51.8738 48.2187 53.4354 48.9797 55.1739 48.9797C58.4162 48.9797 61.0434 46.3326 61.0434 43.092C61.0434 40.3696 59.1892 38.0661 56.6739 37.399V37.3918C60.9813 35.8523 64 31.4942 64 26.5022C64 20.2668 59.2904 15.0205 53.2423 15.0205H30.9236C27.2749 15.0205 24.1133 16.9299 22.1791 19.814ZM23.7122 35.0266C23.3353 34.6621 22.9831 34.2698 22.6583 33.8529V35.0266H23.7122ZM52.1769 38.0266C51.6585 38.3357 51.1923 38.7226 50.7936 39.1708C50.394 38.7225 49.927 38.3357 49.4086 38.0266H52.1769ZM43.4292 38.0266H22.6583V41.5921H40.7424C41.1393 40.0827 42.1205 38.8069 43.4292 38.0266ZM11.8292 37.2043C9.10009 37.2043 6.81269 39.0701 6.15197 41.5921H4V33.703H15.1631V22.814H19.6583V41.5921H17.5065C16.8457 39.0701 14.5583 37.2043 11.8292 37.2043ZM12.1631 22.814H8.40883L4.81661 30.703H12.1631V22.814ZM11.8292 40.2043C10.2502 40.2043 8.95966 41.4913 8.95966 43.092C8.95966 44.6927 10.2502 45.9797 11.8292 45.9797C13.4082 45.9797 14.6988 44.6927 14.6988 43.092C14.6988 41.4913 13.4082 40.2043 11.8292 40.2043ZM43.5493 43.092C43.5493 41.4966 44.8451 40.2043 46.4189 40.2043C47.9926 40.2043 49.2884 41.4966 49.2884 43.092C49.2884 44.691 48.005 45.9797 46.4189 45.9797C44.8327 45.9797 43.5493 44.691 43.5493 43.092ZM55.1739 40.2043C53.5877 40.2043 52.3043 41.493 52.3043 43.092C52.3043 44.6875 53.6001 45.9797 55.1739 45.9797C56.7476 45.9797 58.0434 44.6874 58.0434 43.092C58.0434 41.4966 56.7476 40.2043 55.1739 40.2043ZM45.0942 23.9169C44.2613 22.8504 43.437 22.0198 43.4024 21.9849L42.4791 21.0576L41.5559 21.9849C41.5212 22.0198 40.6968 22.8504 39.864 23.917C37.9996 26.3044 37.9996 27.4672 37.9996 27.8493C37.9996 30.3194 40.0091 32.3289 42.4791 32.3289C44.949 32.3289 46.9585 30.3194 46.9585 27.8493C46.9585 27.4672 46.9585 26.3043 45.0942 23.9169ZM42.479 29.7232C41.4457 29.7232 40.6051 28.8826 40.6051 27.8493C40.6051 27.3913 41.3393 26.1526 42.4761 24.8267C43.4798 26.0056 44.3529 27.3139 44.3529 27.8493C44.353 28.8826 43.5123 29.7232 42.479 29.7232Z" fill="#333333"/>
</svg>
