<svg width="36" height="36" viewBox="0 0 36 36" fill="none" xmlns="http://www.w3.org/2000/svg">
<path d="M30.8515 6.84675V5.90146C30.8515 5.48559 30.5144 5.14844 30.0985 5.14844H29.1532C26.8274 5.14844 24.948 6.38776 23.8958 8.00681C23.6203 7.40273 23.2361 6.8466 22.7526 6.36331C22.2278 5.83815 21.7587 5.36902 21.7587 5.36902C21.4647 5.07494 20.9879 5.07494 20.6938 5.36902L19.6998 6.36301C18.6382 7.42417 18.0535 8.83568 18.0535 10.3376C18.0535 10.7244 18.0926 11.105 18.1683 11.4754C18.0865 11.3822 18.0017 11.2911 17.9132 11.2027L16.9193 10.2084C16.6253 9.91431 16.1482 9.91461 15.8544 10.2084L14.8604 11.2024C13.7988 12.2636 13.2141 13.6751 13.2141 15.177C13.2141 15.5638 13.2532 15.9445 13.3289 16.3148C13.2471 16.2217 13.1623 16.1306 13.0738 16.0421L12.0799 15.0479C11.9387 14.9066 11.7472 14.8273 11.5475 14.8273C11.3478 14.8273 11.1563 14.9066 11.0151 15.0479L10.021 16.0418C7.8484 18.2135 7.80236 21.7733 10.0209 23.9909L10.4826 24.4526L5.369 29.5661C5.07492 29.8602 5.07492 30.3369 5.369 30.631C5.66303 30.9251 6.13984 30.9251 6.43392 30.631L11.5473 25.5176L12.0088 25.9793C13.0707 27.0407 14.4823 27.6253 15.9832 27.6253C16.6052 27.6253 18.4069 27.5297 19.9581 25.9792L20.9522 24.985C21.0934 24.8438 21.1728 24.6523 21.1728 24.4526C21.1728 24.2528 21.0934 24.0613 20.9522 23.9201L19.958 22.9259C19.8696 22.8376 19.7786 22.7529 19.6855 22.6712C20.0557 22.7468 20.4362 22.7859 20.8226 22.7859H20.823C22.324 22.7859 23.7354 22.2013 24.7975 21.1397L25.7916 20.1456C26.0857 19.8515 26.0854 19.3745 25.7916 19.0806L24.7974 18.0864C24.709 17.9981 24.618 17.9134 24.525 17.8317C24.8951 17.9074 25.2756 17.9464 25.662 17.9464H25.6624C27.1634 17.9464 28.5749 17.3618 29.6369 16.3003L30.631 15.3062C30.9251 15.0122 30.9251 14.5353 30.631 14.2413L29.6368 13.247C29.1531 12.7635 28.5967 12.3794 27.9926 12.104C29.6103 11.0525 30.8515 9.17605 30.8515 6.84675ZM20.7646 7.42803L21.2262 6.96648C21.3663 7.10664 21.5242 7.26468 21.6876 7.42818C23.2946 9.03448 23.2976 11.6378 21.6873 13.2474L21.2261 13.7087L20.7645 13.247C19.1716 11.6549 19.1425 9.04949 20.7646 7.42803ZM19.4449 14.0398C19.5266 14.1328 19.6113 14.2238 19.6997 14.3121L21.6876 16.3004C21.776 16.3887 21.867 16.4735 21.9601 16.5552C20.8154 16.3212 19.8736 16.4956 19.3709 16.6291C19.5048 16.1249 19.6786 15.1833 19.4449 14.0398ZM15.9252 12.2675L16.3867 11.8059L16.8482 12.2676C18.4552 13.8738 18.4582 16.4771 16.8479 18.0867L16.3867 18.548L15.9251 18.0864C14.3326 16.4946 14.3027 13.8893 15.9252 12.2675ZM14.6054 18.8791C14.6871 18.9721 14.7719 19.0631 14.8603 19.1515L16.8482 21.1398C16.9366 21.2282 17.0276 21.3129 17.1206 21.3946C15.976 21.1606 15.0342 21.335 14.5314 21.4685C14.6653 20.9643 14.8392 20.0227 14.6054 18.8791ZM12.0084 22.9262L11.5473 23.3875L11.0856 22.9259C9.49325 21.3341 9.46312 18.7288 11.0857 17.1069L11.5473 16.6453L12.0087 17.107C13.6157 18.7132 13.6187 21.3166 12.0084 22.9262ZM18.8932 24.9141C18.1157 25.6913 17.0824 26.1192 15.9836 26.1192C15.5238 26.1192 14.2072 26.0472 13.0738 24.9144L12.6122 24.4525L13.0735 23.991C14.681 22.3842 17.2832 22.3816 18.8932 23.9909L19.3548 24.4526L18.8932 24.9141ZM23.7326 20.0747C22.1367 21.6699 19.5334 21.6945 17.9132 20.075L17.4516 19.6131L17.9129 19.1516C19.5204 17.5447 22.1225 17.5422 23.7325 19.1515L24.1942 19.6132L23.7326 20.0747ZM28.5719 14.3121L29.0335 14.7737L28.572 15.2352C26.976 16.8306 24.3726 16.8549 22.7526 15.2355C22.5892 15.072 22.4311 14.9138 22.291 14.7736L22.7523 14.3122C24.3599 12.7053 26.962 12.7029 28.5719 14.3121ZM24.5909 11.601H24.399V11.4087C24.399 8.7781 26.5284 6.65448 29.1532 6.65448H29.3455V6.84675C29.3455 9.49247 27.1966 11.601 24.5909 11.601Z" fill="#333333"/>
</svg>
