<svg width="30" viewBox="0 0 65 64" fill="none" xmlns="http://www.w3.org/2000/svg">
<path fill-rule="evenodd" clip-rule="evenodd" d="M57.7387 16.6421L44.6791 9.42867V8.73145L43.4168 8.73145L43.3589 8.69946L43.2488 8.73145L41.6791 8.73145V9.18746L16.0186 16.6421H6V26.1346H13.9926V32.4629H11.5373V40.3733H19.4477V32.4629H16.9926V26.1346H37.7239V39.2974L31.3956 44.8346V57.6944H54.1717V44.8346L47.8433 39.2973V26.1346H59V16.6421H57.7387ZM47.8433 43.2836V54.6944H51.1717V46.196L47.8433 43.2836ZM42.7769 54.6944L40.7239 52.7494V54.6944H42.7769ZM37.7239 54.6944V43.2837L34.3956 46.196V54.6944H37.7239ZM26.7722 16.6421L41.6791 12.3115V16.6421H26.7722ZM44.6791 12.8559V16.6421H51.5339L44.6791 12.8559ZM9 19.6421H41.6791V23.1346H9V19.6421ZM44.6791 19.6421V23.1346H56V19.6421H44.6791ZM44.8433 44.9286V52.5195L41.0533 48.9291L44.8433 44.9286ZM44.3162 41.1229L40.7239 37.7197V44.9147L44.3162 41.1229ZM44.8433 37.4897V29.8988L41.0533 33.8993L44.8433 37.4897ZM40.7239 29.885L44.2768 26.1346H40.7239V29.885ZM16.4477 35.4629H14.5373V37.3733H16.4477V35.4629Z" fill="#333333"/>
</svg>
