<svg width="36" height="36" viewBox="0 0 36 36" fill="none" xmlns="http://www.w3.org/2000/svg">
<path d="M17.9927 27.2339C20.1822 27.2339 21.9635 25.4527 21.9635 23.2631C22.0896 21.7463 19.5582 18.5267 18.5897 17.4999L17.9927 16.8446L17.3957 17.4999C16.4172 18.5376 13.8952 21.7518 14.0219 23.2631C14.0219 25.4526 15.8032 27.2339 17.9927 27.2339ZM17.9927 19.2759C19.1149 20.6271 20.3483 22.4287 20.3483 23.2631C20.3483 24.562 19.2916 25.6188 17.9927 25.6188C16.6938 25.6188 15.6371 24.5621 15.6371 23.2631C15.6371 22.4287 16.8706 20.627 17.9927 19.2759Z" fill="#333333"/>
<path d="M14.6306 12.6361C14.1143 11.975 13.6033 11.4601 13.5818 11.4385L13.0095 10.8636L12.4372 11.4385C12.4157 11.4601 11.9046 11.975 11.3884 12.6361C10.2327 14.1161 10.2327 14.8369 10.2327 15.0738C10.2327 16.6049 11.4783 17.8506 13.0095 17.8506C14.5405 17.8506 15.7862 16.6049 15.7862 15.0738C15.7862 14.8369 15.7862 14.116 14.6306 12.6361ZM13.0094 16.2353C12.3689 16.2353 11.8478 15.7142 11.8478 15.0737C11.8478 14.7898 12.3029 14.022 13.0076 13.2C13.6298 13.9309 14.171 14.7418 14.171 15.0737C14.1711 15.7142 13.6499 16.2353 13.0094 16.2353Z" fill="#333333"/>
<path d="M24.688 13.0794C24.688 12.517 24.3821 11.8634 23.7255 11.0226C23.3048 10.4838 22.8875 10.0634 22.8699 10.0457L22.2976 9.47095L21.7253 10.0458C21.1137 10.6474 19.8399 12.1753 19.9074 13.0794C20.0385 16.2502 24.5571 16.2497 24.688 13.0794ZM21.5225 13.0817C21.534 12.8695 21.8615 12.3518 22.2972 11.8211C22.73 12.3497 23.0615 12.8721 23.0728 13.0794C23.0298 14.1076 21.5665 14.1069 21.5225 13.0817Z" fill="#333333"/>
<path d="M31.7812 12.0498L27.6354 10.837L26.4227 14.9828L27.9729 15.4363L28.4418 13.8333C32.637 24.6755 19.8077 33.9746 10.8156 26.6171L9.77954 27.8561C20.191 36.2635 34.7273 25.669 29.9237 13.1893L31.3277 13.6L31.7812 12.0498Z" fill="#333333"/>
<path d="M7.5662 22.1189C3.42392 11.2709 16.267 2.02935 25.2303 9.39917L26.2693 8.16243C15.8912 -0.25887 1.3396 10.2688 6.08088 22.755L4.6794 22.3379L4.21875 23.886L8.35882 25.1181L9.59087 20.978L8.04278 20.5173L7.5662 22.1189Z" fill="#333333"/>
</svg>
