<svg width="36" height="36" viewBox="0 0 36 36" fill="none" xmlns="http://www.w3.org/2000/svg">
<path d="M23.8976 19.6084V20.4127H29.5272V19.6084C29.5272 15.6033 26.2688 12.3449 22.2637 12.3449L21.9923 12.3478C21.6427 12.3514 21.314 12.2182 21.0657 11.9726C20.8174 11.727 20.6807 11.3993 20.6807 11.0501V8.34926H18.268V6.74081H22.2892V5.13235H18.268V4.32812H16.6596V5.13235H12.6384V6.74081H16.6596V8.34926H14.2469V10.8512C14.2469 11.6889 13.5654 12.3704 12.7277 12.3704H10.2145C10.0933 11.0199 8.95572 9.95772 7.57422 9.95772H5.40039V20.4127H7.57416C8.95566 20.4127 10.0932 19.3505 10.2144 18H22.2892C23.1761 18 23.8976 18.7215 23.8976 19.6084ZM15.8553 10.8512V9.95772H19.0723V11.0501C19.0723 11.8322 19.3784 12.5659 19.9345 13.116C20.4905 13.6661 21.2263 13.9649 22.0095 13.9561L22.2679 13.9534C25.1115 13.9554 27.4704 16.0667 27.8618 18.8042H25.4044C25.0463 17.4183 23.7855 16.3915 22.2892 16.3915H10.2258V13.9789H12.7277C14.4523 13.9789 15.8553 12.5758 15.8553 10.8512ZM8.6173 17.7611C8.6173 18.3363 8.14935 18.8042 7.57416 18.8042H7.00885V11.5662H7.57416C8.14935 11.5662 8.6173 12.0341 8.6173 12.6093V17.7611Z" fill="#333333"/>
<path d="M28.968 24.425C28.2128 23.4014 27.4677 22.5948 27.4364 22.561L26.8464 21.9243L26.2565 22.561C26.2252 22.5948 25.4801 23.4014 24.7249 24.425C23.6271 25.9131 23.0934 27.0559 23.0934 27.9189C23.0934 29.9883 24.777 31.6719 26.8464 31.6719C28.9159 31.6719 30.5995 29.9883 30.5995 27.9189C30.5995 27.0559 30.0658 25.9131 28.968 24.425ZM26.8464 30.0635C25.6639 30.0635 24.7018 29.1014 24.7018 27.9189C24.7018 27.7428 24.7963 27.0403 26.0107 25.3914C26.3054 24.9915 26.6023 24.6228 26.8485 24.3289C27.8627 25.5419 28.9911 27.1739 28.9911 27.9189C28.9911 29.1014 28.029 30.0635 26.8464 30.0635Z" fill="#333333"/>
</svg>
