<svg viewBox="0 0 65 64" fill="none" xmlns="http://www.w3.org/2000/svg">
<g clip-path="url(#clip0)">
<path d="M50.5266 38.5349L49.5397 31.9566H45.6559V15.5109H39.0777V12.2218H25.9211V15.5109H19.3429V31.9566H15.4595L14.4726 38.5349L12.5 51.6914H52.5L50.5266 38.5349ZM42.3668 18.8001V31.9566H34.144V22.0892H39.0777V18.8001H42.3668ZM35.7885 15.5109V18.8001H29.2103V15.5109H35.7885ZM22.632 18.8001H25.9211V22.0892H30.8548V31.9566H22.632V18.8001ZM18.2929 35.2457H46.7063L47.2005 38.5349H17.7987L18.2929 35.2457ZM16.3187 48.4023L17.3056 41.824H47.6928L48.6797 48.4023H16.3187Z" fill="#333333"/>
</g>
<defs>
<clipPath id="clip0">
<rect width="40" height="40" fill="#333333" transform="translate(12.5 12)"/>
</clipPath>
</defs>
</svg>
